<svg width="814" height="175" viewBox="0 0 814 175" fill="none" xmlns="http://www.w3.org/2000/svg">
<path d="M39.4766 11.3047C45.4375 10.5937 51.7266 10.2383 58.3438 10.2383C65.6172 10.2383 72.125 11.3867 77.8672 13.6836C83.6641 15.9805 88.3398 18.9336 91.8945 22.543C95.5039 26.0977 98.457 30.3086 100.754 35.1758C103.051 40.043 104.637 44.8828 105.512 49.6953C106.441 54.4531 106.906 59.3477 106.906 64.3789C106.906 80.9492 102.258 94.2109 92.9609 104.164C83.6641 114.117 70.2656 119.094 52.7656 119.094L39.3125 118.93C38.7656 96.2344 38.4922 79.2812 38.4922 68.0703C38.4922 47.7812 38.8203 28.8594 39.4766 11.3047ZM57.1133 128.363C38.793 128.363 20.5 128.582 2.23438 129.02C0.867188 125.246 0.867188 121.719 2.23438 118.438C14.1016 117.234 20.0898 115.621 20.1992 113.598C20.8555 96.4258 21.1836 79.2266 21.1836 62C21.1836 44.3906 20.9102 29.1602 20.3633 16.3086C20.2539 14.2852 14.1562 12.6719 2.07031 11.4688C1.14062 7.96875 1.25 4.44141 2.39844 0.886719C9.125 0.996094 30.0703 1.05078 65.2344 1.05078C72.8359 1.05078 79.8086 1.51563 86.1523 2.44531C92.5508 3.375 99.0586 5.26172 105.676 8.10547C112.293 10.8945 117.871 14.5586 122.41 19.0977C126.949 23.6367 130.641 29.7617 133.484 37.4727C136.328 45.1836 137.75 54.207 137.75 64.543C137.75 74.3867 136.082 83.1094 132.746 90.7109C129.41 98.3125 125.035 104.438 119.621 109.086C114.262 113.734 107.945 117.562 100.672 120.57C93.3984 123.523 86.2344 125.547 79.1797 126.641C72.125 127.789 64.7695 128.363 57.1133 128.363ZM52.1094 14.2578C51.4531 33.4531 51.125 51.3906 51.125 68.0703C51.125 81.6328 51.3438 97.5195 51.7812 115.73C69.0078 115.293 81.9414 110.453 90.582 101.211C99.2227 91.9688 103.543 79.6914 103.543 64.3789C103.543 58.418 102.832 52.7305 101.41 47.3164C99.9883 41.8477 97.7188 36.543 94.6016 31.4023C91.4844 26.2617 86.918 22.1055 80.9023 18.9336C74.9414 15.707 67.9141 13.9844 59.8203 13.7656C57.1406 13.7656 54.5703 13.9297 52.1094 14.2578ZM4.53125 125.492C16.2891 125.164 31.875 125 51.2891 125C58.2344 125 64.9336 124.48 71.3867 123.441C77.8945 122.348 84.4844 120.379 91.1562 117.535C97.8281 114.691 103.598 111.082 108.465 106.707C113.332 102.332 117.324 96.5078 120.441 89.2344C123.613 81.9609 125.199 73.6758 125.199 64.3789C125.199 24.4023 103.242 4.41406 59.3281 4.41406C55.2812 4.41406 49.5391 4.49609 42.1016 4.66016C34.6641 4.82422 27.9102 4.90625 21.8398 4.90625C15.8242 4.90625 10.1094 4.74219 4.69531 4.41406C4.25781 5.39844 4.25781 6.68359 4.69531 8.26953C17.2734 9.47266 23.6172 12.0977 23.7266 16.1445C24.2734 28.9961 24.5469 44.2812 24.5469 62C24.5469 79.3359 24.2188 96.5898 23.5625 113.762C23.4531 117.809 17.1094 120.434 4.53125 121.637C3.98438 122.895 3.98438 124.18 4.53125 125.492ZM200.701 55.7656C205.076 55.7656 208.248 57.1875 210.216 60.0312C212.185 62.8203 213.17 66.3203 213.17 70.5312C213.17 72.1172 212.896 73.9219 212.349 75.9453H180.357C182.052 69.1094 184.787 64.0508 188.56 60.7695C192.388 57.4336 196.435 55.7656 200.701 55.7656ZM179.537 81.5234H224.244C225.119 78.7891 225.556 75.9727 225.556 73.0742C225.556 66.6758 223.724 61.3164 220.06 56.9961C216.451 52.6211 210.681 50.4336 202.752 50.4336C192.416 50.4336 183.72 54.1797 176.666 61.6719C169.611 69.1641 166.084 78.6797 166.084 90.2188C166.084 102.523 169.447 111.793 176.173 118.027C182.9 124.262 190.802 127.379 199.88 127.379C206.607 127.379 212.841 125.574 218.584 121.965C224.38 118.301 228.619 112.805 231.298 105.477C230.533 104.602 229.466 104 228.099 103.672C227.88 104 227.224 104.902 226.13 106.379C225.091 107.801 224.326 108.84 223.834 109.496C223.341 110.098 222.439 111 221.127 112.203C219.869 113.352 218.638 114.199 217.435 114.746C216.287 115.293 214.81 115.84 213.005 116.387C211.201 116.879 209.232 117.125 207.099 117.125C198.677 117.125 191.978 114.637 187.002 109.66C182.025 104.629 179.427 97.875 179.209 89.3984C179.209 87.4844 179.318 84.8594 179.537 81.5234ZM226.787 99.8164C230.232 100.582 233.021 102.305 235.154 104.984C232.037 113.516 227.224 119.941 220.716 124.262C214.209 128.582 207.263 130.742 199.88 130.742C189.818 130.742 181.095 127.352 173.712 120.57C166.384 113.789 162.72 103.672 162.72 90.2188C162.72 78.0234 166.466 67.7969 173.959 59.5391C181.505 51.2266 192.17 47.0703 205.951 47.0703C226.787 47.0703 237.205 55.7383 237.205 73.0742C237.205 76.4648 236.412 80.4023 234.826 84.8867H190.775V90.2188C191.048 96.8359 192.853 102.223 196.189 106.379C199.525 110.48 204.119 112.887 209.97 113.598C213.416 113.27 216.259 112.094 218.502 110.07C220.744 108.047 223.505 104.629 226.787 99.8164ZM209.806 70.5312C209.806 64.5156 207.783 60.8789 203.736 59.6211C198.923 61.0977 195.341 65.418 192.99 72.582H209.642C209.642 72.3633 209.67 72.0352 209.724 71.5977C209.779 71.1602 209.806 70.8047 209.806 70.5312ZM274.316 125.984C271.691 126.859 269.12 127.926 266.605 129.184C264.034 127.598 262.339 125.984 261.519 124.344C261.628 124.016 261.792 122.895 262.011 120.98C262.23 119.066 262.448 116.824 262.667 114.254C262.941 111.684 263.159 109.031 263.323 106.297C263.487 103.562 263.57 101.238 263.57 99.3242C266.14 98.1211 270.105 97.5195 275.464 97.5195C276.066 97.5195 276.667 97.5195 277.269 97.5195C277.87 97.5195 278.499 97.5469 279.155 97.6016C283.093 110.398 288.48 117.344 295.316 118.438C298.105 118 300.237 116.988 301.714 115.402C303.245 113.762 304.011 111.93 304.011 109.906C304.011 108.43 303.601 107.062 302.78 105.805C301.96 104.492 300.866 103.289 299.499 102.195C298.132 101.102 296.519 100.09 294.659 99.1602C292.855 98.2305 290.941 97.3281 288.917 96.4531C286.894 95.5234 284.843 94.6484 282.765 93.8281C280.687 92.9531 278.691 92.0508 276.777 91.1211C274.753 90.1914 272.839 89.0703 271.034 87.7578C269.23 86.3906 267.644 84.8594 266.277 83.1641C264.909 81.4141 263.816 79.5 262.995 77.4219C262.23 75.3438 261.847 73.1016 261.847 70.6953C261.847 68.125 262.284 65.4453 263.159 62.6562C264.034 59.8672 265.538 57.3242 267.671 55.0273C269.804 52.7305 272.675 50.8438 276.284 49.3672C279.894 47.8359 284.433 47.0703 289.902 47.0703C295.972 47.0703 300.456 47.3984 303.355 48.0547L306.39 47.0703H311.968C312.679 51.7188 313.527 56.0664 314.511 60.1133C315.55 64.1602 316.698 67.9336 317.956 71.4336C315.605 73.7852 312.761 74.9609 309.425 74.9609C307.566 72.7734 305.843 70.8047 304.257 69.0547C302.671 67.25 301.14 65.6914 299.663 64.3789C298.241 63.0664 296.82 62 295.398 61.1797C294.03 60.3594 292.609 59.7852 291.132 59.457C287.523 60.0586 285.718 61.6992 285.718 64.3789C285.718 66.5117 286.648 68.3711 288.507 69.957C290.366 71.543 292.691 72.9922 295.48 74.3047C298.269 75.6172 301.304 76.875 304.585 78.0781C307.921 79.2266 311.066 80.457 314.019 81.7695C316.152 82.6992 318.148 83.9023 320.007 85.3789C321.921 86.8555 323.589 88.5781 325.011 90.5469C326.433 92.4609 327.554 94.6211 328.374 97.0273C329.195 99.3789 329.605 101.922 329.605 104.656C329.605 108.703 328.566 112.34 326.487 115.566C324.464 118.793 321.757 121.527 318.366 123.77C315.03 126.012 311.202 127.734 306.882 128.938C302.562 130.141 298.159 130.742 293.675 130.742C285.964 130.742 279.511 129.156 274.316 125.984ZM293.101 127.379C299.937 127.379 305.788 125.355 310.655 121.309C315.523 117.262 317.956 112.723 317.956 107.691C317.956 102.77 316.452 98.5312 313.445 94.9766C310.437 91.3672 306.8 88.5781 302.534 86.6094C298.269 84.6406 293.976 82.8359 289.655 81.1953C285.335 79.5 281.671 77.5312 278.663 75.2891C275.655 73.0469 274.152 70.4219 274.152 67.4141C274.152 63.5859 275.573 60.6875 278.417 58.7188C281.261 56.75 284.597 55.7656 288.425 55.7656C292.472 55.7656 296.081 57.0234 299.253 59.5391C302.425 62.0547 306.308 66.0742 310.902 71.5977C312.378 71.5977 313.445 71.2422 314.101 70.5312C312.077 64.7344 309.07 59.9492 305.077 56.1758C301.14 52.3477 296.081 50.4336 289.902 50.4336C281.097 50.4336 274.78 52.5391 270.952 56.75C267.124 60.9062 265.21 65.5547 265.21 70.6953C265.21 75.0703 266.659 78.8164 269.558 81.9336C272.511 84.9961 276.038 87.375 280.14 89.0703C284.296 90.7109 288.425 92.3516 292.527 93.9922C296.628 95.6328 300.128 97.7656 303.027 100.391C305.925 103.016 307.374 106.188 307.374 109.906C307.374 113.023 306.034 115.812 303.355 118.273C300.675 120.734 296.929 121.965 292.116 121.965C286.32 121.965 281.835 120.133 278.663 116.469C275.546 112.75 272.921 107.582 270.788 100.965C268.874 100.965 267.589 101.129 266.933 101.457C266.933 105.395 266.741 109.906 266.359 114.992C265.976 120.078 265.593 123.086 265.21 124.016C265.593 124.562 266.112 125.055 266.769 125.492C269.011 123.906 270.734 122.238 271.937 120.488C276.749 123.168 280.495 124.973 283.175 125.902C285.909 126.887 289.218 127.379 293.101 127.379ZM374.591 9.74609C386.95 9.74609 393.13 14.2305 393.13 23.1992C393.13 32.168 386.95 36.6523 374.591 36.6523C372.731 36.6523 370.981 36.2969 369.341 35.5859C367.755 34.875 366.36 33.918 365.157 32.7148C363.954 31.457 362.997 30.0078 362.286 28.3672C361.575 26.7266 361.22 25.0039 361.22 23.1992C361.22 21.3945 361.575 19.6719 362.286 18.0312C362.997 16.3906 363.954 14.9688 365.157 13.7656C366.36 12.5078 367.755 11.5234 369.341 10.8125C370.981 10.1016 372.731 9.74609 374.591 9.74609ZM367.044 16.1445C365.403 18.0586 364.583 20.4102 364.583 23.1992C364.583 24.6211 364.802 25.9609 365.239 27.2188C365.731 28.4219 366.388 29.4883 367.208 30.418C368.028 31.293 368.958 32.0039 369.997 32.5508C371.091 33.043 372.239 33.2891 373.442 33.2891C374.591 33.2891 375.712 33.043 376.805 32.5508C377.899 32.0039 378.856 31.293 379.677 30.418C380.497 29.4883 381.153 28.4219 381.645 27.2188C382.138 25.9609 382.384 24.6211 382.384 23.1992C382.384 21.7773 382.138 20.4648 381.645 19.2617C381.153 18.0039 380.497 16.9375 379.677 16.0625C378.856 15.1328 377.899 14.4219 376.805 13.9297C375.712 13.3828 374.591 13.1094 373.442 13.1094C372.294 13.1094 371.173 13.3555 370.079 13.8477C368.985 14.3398 367.973 15.1055 367.044 16.1445ZM400.184 121.227C387.169 120.023 380.606 117.398 380.497 113.352C379.95 96.9453 379.731 76.793 379.841 52.8945C379.403 52.0195 378.446 51.3086 376.97 50.7617C369.368 54.3164 361.466 56.5586 353.263 57.4883C352.934 58.8008 352.934 60.0859 353.263 61.3438C359.442 61.6719 364.145 62.793 367.372 64.707C367.864 85.1055 367.809 101.32 367.208 113.352C367.098 117.398 362.45 120.023 353.263 121.227C352.716 122.594 352.716 123.934 353.263 125.246C368.958 124.918 384.598 124.918 400.184 125.246C400.731 123.934 400.731 122.594 400.184 121.227ZM403.22 118.191C404.095 121.582 404.095 124.891 403.22 128.117C385.61 127.57 367.973 127.57 350.309 128.117C349.38 124.891 349.38 121.582 350.309 118.191C359.223 117.316 363.735 115.648 363.845 113.188C364.555 97.875 364.61 82.3711 364.009 66.6758C360.345 65.582 355.778 64.8711 350.309 64.543C349.052 61.2617 349.052 57.7891 350.309 54.125C358.567 53.6875 367.864 51.2266 378.2 46.7422C384.106 47.1797 388.509 48.957 391.407 52.0742C391.188 78.9805 391.407 99.3516 392.063 113.188C392.227 115.648 395.946 117.316 403.22 118.191ZM442.627 77.4219C442.627 69.8203 444.049 64.3242 446.893 60.9336C449.791 57.4883 453.428 55.7656 457.803 55.7656C461.03 55.7656 464.01 57.3242 466.745 60.4414C469.534 63.5039 470.928 68.6719 470.928 75.9453C470.928 91.5312 466.663 99.3242 458.131 99.3242C447.795 99.3242 442.627 92.0234 442.627 77.4219ZM442.299 146.82C442.299 140.805 445.772 135.938 452.717 132.219C457.092 131.781 463.819 131.562 472.897 131.562C479.405 131.562 483.752 132.766 485.94 135.172C488.127 137.578 489.221 141.078 489.221 145.672C489.221 149.609 487.116 153.684 482.905 157.895C478.694 162.16 472.405 164.293 464.038 164.293C456.491 164.293 450.967 162.57 447.467 159.125C444.022 155.734 442.299 151.633 442.299 146.82ZM495.045 53.9609C496.522 54.0703 497.26 54.8359 497.26 56.2578C497.26 58.0625 496.139 59.1289 493.897 59.457C491.983 59.6758 489.631 59.2383 486.842 58.1445C485.366 57.5977 483.479 56.832 481.182 55.8477C478.885 54.8086 477.272 54.0977 476.342 53.7148C475.413 53.2773 474.127 52.7852 472.487 52.2383C470.846 51.6914 469.424 51.3359 468.221 51.1719C467.073 51.0078 465.623 50.8438 463.873 50.6797C462.178 50.5156 460.264 50.4336 458.131 50.4336C449.819 50.4336 442.764 53.2227 436.967 58.8008C431.225 64.3789 428.354 70.5312 428.354 77.2578C428.354 88.1406 433.303 96.3164 443.202 101.785C434.342 108.402 429.913 114.336 429.913 119.586C429.913 126.203 435.163 130.305 445.663 131.891C434.944 137.688 429.584 144.633 429.584 152.727C429.584 157.977 432.045 162.352 436.967 165.852C441.889 169.406 449.108 171.184 458.623 171.184C469.944 171.184 479.514 167.438 487.334 159.945C495.209 152.453 499.147 144.824 499.147 137.059C499.147 124.535 491.518 118.273 476.26 118.273C474.565 118.273 472.323 118.328 469.534 118.438C466.745 118.547 464.83 118.602 463.791 118.602C455.424 118.602 449.518 118.055 446.073 116.961C442.682 115.812 440.987 114.008 440.987 111.547C440.987 108.43 443.393 105.859 448.205 103.836C451.541 104.383 455.069 104.656 458.788 104.656C466.17 104.656 472.405 102.086 477.491 96.9453C482.631 91.8047 485.202 84.8594 485.202 76.1094C485.202 69.1641 483.889 63.9141 481.264 60.3594L481.674 59.9492C482.549 60.5508 483.725 61.3984 485.202 62.4922C486.733 63.5312 487.881 64.2695 488.647 64.707C489.467 65.1445 490.506 65.582 491.764 66.0195C493.077 66.457 494.362 66.6758 495.62 66.6758C497.698 66.6758 499.448 65.8828 500.87 64.2969C502.291 62.6562 503.002 60.7148 503.002 58.4727C503.002 56.1211 502.319 54.1523 500.952 52.5664C499.639 50.9258 497.67 50.1055 495.045 50.1055C494.28 51.5273 494.28 52.8125 495.045 53.9609ZM496.112 70.0391C496.549 71.8438 496.768 73.8672 496.768 76.1094C496.768 85.8438 493.651 93.6094 487.416 99.4062C481.237 105.148 473.663 108.02 464.694 108.02H454.44C452.854 109.824 452.389 111.438 453.045 112.859C453.756 114.227 455.069 114.91 456.983 114.91H484.463C501.963 114.91 510.713 122.293 510.713 137.059C510.713 140.996 509.538 145.125 507.186 149.445C504.834 153.766 501.553 157.785 497.342 161.504C493.131 165.277 487.608 168.395 480.772 170.855C473.936 173.316 466.553 174.547 458.623 174.547C447.959 174.547 439.893 172.469 434.424 168.312C428.955 164.211 426.221 159.016 426.221 152.727C426.221 145.781 429.858 139.328 437.131 133.367C430.077 130.906 426.549 126.312 426.549 119.586C426.549 113.789 430.131 107.91 437.295 101.949C429.092 96.043 424.991 87.8125 424.991 77.2578C424.991 69.7656 428.217 62.875 434.67 56.5859C441.123 50.2422 448.944 47.0703 458.131 47.0703C464.967 47.0703 469.998 47.4258 473.225 48.1367C476.506 48.8477 480.608 50.2148 485.53 52.2383C487.991 48.5742 491.163 46.7422 495.045 46.7422C498.873 46.7422 501.717 47.8633 503.577 50.1055C505.436 52.3477 506.366 55.1367 506.366 58.4727C506.366 61.6992 505.436 64.4336 503.577 66.6758C501.717 68.918 499.229 70.0391 496.112 70.0391ZM453.948 146.82C453.948 150.32 454.959 153.383 456.983 156.008C459.061 158.633 462.397 160.219 466.991 160.766C473.28 160.219 477.983 158.277 481.1 154.941C484.272 151.66 485.858 148.57 485.858 145.672C485.858 142.281 485.092 139.629 483.561 137.715C482.03 135.855 479.104 134.926 474.784 134.926C469.588 134.926 464.475 135.145 459.444 135.582C455.78 138.699 453.948 142.445 453.948 146.82ZM454.276 77.4219C454.276 87.7578 456.518 93.7734 461.002 95.4688C465.377 93.7734 467.565 87.2656 467.565 75.9453C467.565 66.9766 465.268 61.5898 460.674 59.7852C456.409 61.5898 454.276 67.4688 454.276 77.4219ZM581.621 121.227C580.965 122.484 580.965 123.824 581.621 125.246C595.84 124.918 610.086 124.918 624.359 125.246C625.125 123.934 625.125 122.594 624.359 121.227C611.016 120.57 604.289 117.945 604.18 113.352L603.359 72.0898C603.086 64.5977 601.855 59.1289 599.668 55.6836C597.535 52.1836 593.762 50.4336 588.348 50.4336C579.27 50.4336 568.469 56.6953 555.945 69.2188V52.8945C555.508 52.0195 554.551 51.3086 553.074 50.7617C545.473 54.3164 537.57 56.5586 529.367 57.4883C529.039 58.8008 529.039 60.0859 529.367 61.3438C535.656 61.6719 540.305 62.793 543.312 64.707C543.914 81.0586 543.914 97.2734 543.312 113.352C543.203 117.398 538.5 120.023 529.203 121.227C528.547 122.484 528.547 123.824 529.203 125.246C543.422 124.699 557.723 124.699 572.105 125.246C572.762 123.824 572.762 122.484 572.105 121.227C561.879 120.133 556.711 117.508 556.602 113.352C556.164 101.977 555.945 89.0156 555.945 74.4688C566.938 64.7891 575.551 59.9492 581.785 59.9492C587.746 59.9492 590.727 64.8984 590.727 74.7969L590.562 113.352C590.562 116.031 589.742 117.918 588.102 119.012C586.461 120.051 584.301 120.789 581.621 121.227ZM578.996 128.117C577.629 124.891 577.629 121.582 578.996 118.191C580.746 118.191 582.551 117.727 584.41 116.797C586.27 115.812 587.199 114.664 587.199 113.352L587.363 74.7969C587.363 68.8359 586.188 65.1992 583.836 63.8867C579.789 64.8711 574.348 67.8242 567.512 72.7461C567.512 87.7852 567.73 101.266 568.168 113.188C568.441 116.086 570.629 117.754 574.73 118.191C576.098 121.582 576.098 124.891 574.73 128.117C558.707 127.57 542.602 127.57 526.414 128.117C525.047 124.891 525.047 121.582 526.414 118.191C535.328 116.988 539.84 115.32 539.949 113.188C540.551 97.7656 540.551 82.2617 539.949 66.6758C536.285 65.582 531.773 64.8711 526.414 64.543C525.156 61.2617 525.156 57.7891 526.414 54.125C534.672 53.6875 543.969 51.2266 554.305 46.7422C560.211 47.1797 564.613 48.957 567.512 52.0742V54.7812C575.277 49.6406 584.191 47.0703 594.254 47.0703C601.637 47.0703 606.887 49.0938 610.004 53.1406C613.176 57.1328 614.816 63.4492 614.926 72.0898C615.145 93.8008 615.418 107.555 615.746 113.352C615.855 115.594 619.711 117.207 627.312 118.191C628.57 121.801 628.461 125.109 626.984 128.117C610.961 127.789 594.965 127.789 578.996 128.117ZM685.505 55.7656C689.88 55.7656 693.052 57.1875 695.021 60.0312C696.99 62.8203 697.974 66.3203 697.974 70.5312C697.974 72.1172 697.701 73.9219 697.154 75.9453H665.162C666.857 69.1094 669.591 64.0508 673.365 60.7695C677.193 57.4336 681.24 55.7656 685.505 55.7656ZM664.341 81.5234H709.048C709.923 78.7891 710.361 75.9727 710.361 73.0742C710.361 66.6758 708.529 61.3164 704.865 56.9961C701.255 52.6211 695.486 50.4336 687.556 50.4336C677.22 50.4336 668.525 54.1797 661.47 61.6719C654.416 69.1641 650.888 78.6797 650.888 90.2188C650.888 102.523 654.252 111.793 660.978 118.027C667.705 124.262 675.607 127.379 684.685 127.379C691.412 127.379 697.646 125.574 703.388 121.965C709.185 118.301 713.423 112.805 716.103 105.477C715.338 104.602 714.271 104 712.904 103.672C712.685 104 712.029 104.902 710.935 106.379C709.896 107.801 709.13 108.84 708.638 109.496C708.146 110.098 707.244 111 705.931 112.203C704.673 113.352 703.443 114.199 702.24 114.746C701.091 115.293 699.615 115.84 697.81 116.387C696.005 116.879 694.037 117.125 691.904 117.125C683.482 117.125 676.783 114.637 671.806 109.66C666.83 104.629 664.232 97.875 664.013 89.3984C664.013 87.4844 664.123 84.8594 664.341 81.5234ZM711.591 99.8164C715.037 100.582 717.826 102.305 719.959 104.984C716.841 113.516 712.029 119.941 705.521 124.262C699.013 128.582 692.068 130.742 684.685 130.742C674.623 130.742 665.9 127.352 658.517 120.57C651.189 113.789 647.525 103.672 647.525 90.2188C647.525 78.0234 651.271 67.7969 658.763 59.5391C666.31 51.2266 676.974 47.0703 690.755 47.0703C711.591 47.0703 722.009 55.7383 722.009 73.0742C722.009 76.4648 721.216 80.4023 719.63 84.8867H675.58V90.2188C675.853 96.8359 677.658 102.223 680.994 106.379C684.33 110.48 688.923 112.887 694.775 113.598C698.22 113.27 701.064 112.094 703.306 110.07C705.548 108.047 708.31 104.629 711.591 99.8164ZM694.611 70.5312C694.611 64.5156 692.588 60.8789 688.541 59.6211C683.728 61.0977 680.146 65.418 677.795 72.582H694.447C694.447 72.3633 694.474 72.0352 694.529 71.5977C694.584 71.1602 694.611 70.8047 694.611 70.5312ZM775.034 78.8164C776.402 73.7852 779.218 68.8906 783.484 64.1328C787.749 59.375 792.097 56.9961 796.527 56.9961C801.722 56.9961 804.32 58.6641 804.32 62C804.32 65.0078 802.898 66.9219 800.054 67.7422C799.288 68.8359 799.288 70.1211 800.054 71.5977C803.007 71.5977 805.413 70.6953 807.273 68.8906C809.187 67.0859 810.144 64.5703 810.144 61.3438C810.144 57.9531 809.105 55.3008 807.027 53.3867C805.003 51.418 802.351 50.4336 799.07 50.4336C794.804 50.4336 790.511 52.1562 786.191 55.6016C781.925 58.9922 778.206 62.793 775.034 67.0039V52.8945C774.597 52.0195 773.667 51.3086 772.245 50.7617C764.917 54.207 756.441 56.4492 746.816 57.4883C746.487 58.8008 746.487 60.0859 746.816 61.3438C754.198 61.6719 759.476 62.793 762.648 64.707C763.085 85.1055 763.03 101.457 762.484 113.762C762.374 117.809 757.726 120.434 748.538 121.637C747.718 123.113 747.718 124.398 748.538 125.492C762.866 124.836 778.48 124.836 795.378 125.492C796.144 124.398 796.144 123.113 795.378 121.637C782.417 120.434 775.882 117.809 775.773 113.762C775.28 102.66 775.034 91.0117 775.034 78.8164ZM787.339 113.598C787.448 115.73 791.14 117.398 798.413 118.602C800.218 122.211 800.109 125.684 798.085 129.02C774.898 128.254 757.37 128.09 745.503 128.527C743.48 125.301 743.37 121.992 745.175 118.602C754.362 117.398 759.011 115.73 759.12 113.598C759.777 98.0117 759.831 82.3711 759.284 66.6758C755.675 65.582 750.698 64.8711 744.355 64.543C743.097 61.2617 743.097 57.7891 744.355 54.125C753.487 53.5781 763.167 51.1172 773.394 46.7422C779.3 47.3984 783.73 49.1758 786.683 52.0742C791.277 48.7383 795.405 47.0703 799.07 47.0703C803.335 47.0703 806.808 48.3281 809.487 50.8438C812.167 53.3594 813.507 56.8594 813.507 61.3438C813.507 65.6094 812.249 68.9453 809.734 71.3516C807.218 73.7578 803.991 74.9609 800.054 74.9609C796.39 74.9609 793.327 73.7305 790.866 71.2695C788.624 74.2773 787.23 77.0117 786.683 79.4727C786.683 91.3398 786.902 102.715 787.339 113.598Z" fill="black"/>
</svg>
