<svg width="121" height="126" viewBox="0 0 121 126" fill="none" xmlns="http://www.w3.org/2000/svg">
<path d="M40.0826 97.0531C40.0102 97.0531 39.9311 97.0394 39.852 97.0188C31.9138 94.4991 23.3164 85.4641 21.4506 77.6853C21.345 77.2461 21.6022 76.8066 22.0175 76.6967C22.4395 76.5869 22.8615 76.8547 22.967 77.2872C24.6878 84.4616 32.9556 93.1191 40.3068 95.4603C40.7223 95.5907 40.9529 96.0438 40.8277 96.4763C40.7288 96.8265 40.4189 97.0531 40.0826 97.0531Z" fill="#975500"/>
<path d="M43.867 107.304C43.8077 107.304 43.7484 107.297 43.689 107.283C37.1223 105.69 29.4875 100.582 22.7493 93.2635C16.4463 86.4255 12.3652 79.1479 12.1015 74.2734C12.0751 73.827 12.4047 73.4358 12.8399 73.4152C13.2684 73.3878 13.6442 73.731 13.664 74.1841C13.9014 78.6193 17.9099 85.6633 23.8767 92.1375C30.4104 99.2365 37.7618 104.173 44.045 105.697C44.467 105.8 44.7308 106.239 44.6319 106.679C44.5461 107.049 44.2231 107.304 43.867 107.304Z" fill="#975500"/>
<path d="M77.525 35.9635C77.1756 35.9635 76.8591 35.7233 76.7668 35.3594C75.6657 31.0067 70.6616 24.759 66.1058 23.5369C65.6904 23.427 65.4332 22.9808 65.5454 22.5414C65.6575 22.1019 66.0793 21.8411 66.5013 21.9578C71.6308 23.3379 77.0502 30.0729 78.2832 34.9475C78.3953 35.38 78.1448 35.8262 77.7228 35.9429C77.6569 35.9568 77.5909 35.9635 77.525 35.9635Z" fill="#975500"/>
<path d="M87.3947 37.4119C87.0453 37.4119 86.7287 37.1648 86.6365 36.8009C83.7025 24.7724 72.7316 15.3872 66.4682 14.2201C66.0395 14.1377 65.7626 13.7189 65.8352 13.2727C65.9143 12.8264 66.3165 12.538 66.745 12.6136C73.5689 13.8906 85.0146 23.5641 88.1529 36.3958C88.2583 36.8352 88.0079 37.2746 87.5859 37.3845C87.5199 37.405 87.4606 37.4119 87.3947 37.4119Z" fill="#975500"/>
<path d="M67.912 58.7849C69.1713 60.2334 70.3054 62.1352 69.8239 62.6364C69.3427 63.1375 67.8658 62.2313 66.7384 61.0503C65.611 59.8763 62.9144 72.3717 62.6507 73.0033C62.4529 73.4771 59.3146 77.2256 57.673 80.7889C57.1257 81.9766 57.2048 85.5605 57.0003 85.7733C56.1763 86.6315 55.128 86.5422 52.8665 84.4619C50.605 82.3817 49.4315 94.7739 52.1281 96.7307C56.7367 100.081 65.9539 113.393 78.1313 113.393C92.2207 113.393 105.269 98.0901 105.269 86.858C105.269 75.626 102.104 71.3693 102.315 61.9566C102.486 53.9858 108.057 50.1822 108.057 46.2003C108.057 42.8498 103.277 42.0328 101.708 42.0328C98.9259 42.0328 91.7922 45.7472 91.7922 55.5237C91.7922 59.3271 90.7506 62.7668 87.0123 62.7668C83.274 62.7668 79.1005 57.4255 76.5753 53.258" fill="url(#paint0_linear_49_6)"/>
<path d="M108.051 46.2002C108.051 44.381 106.634 43.3098 105.091 42.7056C106.943 49.0975 97.5484 49.3721 97.5484 71.1497C97.5484 92.9272 85.3708 99.264 80.3271 100.356C75.2833 101.441 66.3959 101.756 59.6314 93.1126C57.5546 90.4555 54.7394 87.572 51.6076 84.8465C50.2823 87.1465 49.9989 95.186 52.1285 96.7307C56.7371 100.081 65.9541 113.393 78.1317 113.393C92.2211 113.393 105.269 98.09 105.269 86.8581C105.269 75.626 102.104 71.3694 102.315 61.9567C102.487 53.9858 108.051 50.1823 108.051 46.2002Z" fill="url(#paint1_linear_49_6)"/>
<path d="M52.8666 84.4621C50.6052 82.3818 45.2581 76.4499 41.7771 73.5458C38.2959 70.6485 35.2564 70.6829 33.1664 73.8822C31.0764 77.0816 37.1685 82.6976 38.5595 84.1461C40.6891 86.3637 49.4315 94.7741 52.1282 96.7376" fill="url(#paint2_linear_49_6)"/>
<path d="M62.6507 73.0028C62.387 73.6345 60.6134 74.0738 57.0861 70.0782C54.3896 67.023 47.1702 58.2419 42.911 54.2598C38.6518 50.2779 35.3421 48.6439 32.5597 50.7311C29.7775 52.8181 31.3598 57.1572 34.4718 60.7822C38.3222 65.2653 42.7527 69.8379 46.9921 74.2318C50.3084 77.6645 57.818 84.9215 56.9938 85.7797" fill="url(#paint3_linear_49_6)"/>
<path d="M46.9987 74.2252C50.1305 77.4658 56.9874 84.1047 57.0598 85.5671C58.0488 83.9606 56.2423 79.1822 54.3302 77.507C43.2802 67.8197 32.606 52.2006 31.2478 52.6674C30.6676 54.94 32.1379 58.0569 34.4719 60.7824C38.3222 65.2589 42.7528 69.8382 46.9987 74.2252Z" fill="url(#paint4_linear_49_6)"/>
<path d="M76.5688 53.2649C74.0437 49.0975 63.6924 35.696 61.1738 31.8925C58.6487 28.0889 55.2598 28.0889 52.9127 29.8123C50.5656 31.5355 49.8667 34.9751 55.1544 42.2869C58.4905 46.9005 61.2596 51.1434 67.9187 58.7916L75.6589 58.2287L76.5688 53.2649Z" fill="url(#paint5_linear_49_6)"/>
<path d="M66.7386 61.0505C65.6112 59.8764 55.6095 47.5322 53.348 44.8821C49.1088 39.9251 43.7353 29.3041 37.3268 34.0345C33.9577 36.5198 35.7841 40.1242 36.74 41.5729C37.696 43.0216 50.1306 57.9679 51.3503 59.2312C52.5701 60.5013 62.9147 72.3649 62.6576 72.9965" fill="url(#paint6_linear_49_6)"/>
<path d="M67.912 58.7842C69.1252 60.1779 70.213 61.9835 69.8703 62.5672C73.9052 59.1893 65.3737 49.2617 60.541 43.3024C56.8027 38.6888 55.7807 32.8187 53.1039 29.6743C53.0379 29.7155 52.9787 29.7636 52.9127 29.8047C50.5656 31.528 49.8667 34.9677 55.1544 42.2795C58.4838 46.8931 61.2596 51.1429 67.912 58.7842Z" fill="url(#paint7_linear_49_6)"/>
<path d="M51.3436 59.2378C52.5633 60.5079 62.9079 72.3716 62.6508 73.0031C65.8483 68.5201 53.4534 55.345 47.4536 48.6854C42.2517 42.9115 41.3616 37.8584 36.2849 35.0229C34.3992 37.3985 35.8958 40.3094 36.7332 41.5795C37.6892 43.0282 50.1304 57.9745 51.3436 59.2378Z" fill="url(#paint8_linear_49_6)"/>
<path d="M62.4198 73.2717C62.0572 73.5051 61.3122 73.5256 60.1584 72.8323C61.0156 73.5532 61.8066 73.8277 62.4198 73.2717Z" fill="url(#paint9_linear_49_6)"/>
<path d="M102.44 43.3922C105.097 42.8978 105.565 43.2138 105.09 42.7057C103.798 42.2045 102.414 42.0328 101.702 42.0328C98.9193 42.0328 91.7856 45.7472 91.7856 55.5237C91.7856 59.3271 90.744 62.7668 86.999 62.7668C85.5222 62.7668 83.986 61.9361 82.5025 60.6728C89.0693 68.2456 94.2185 61.1122 95.003 56.2239C95.7877 51.3357 94.647 44.8477 102.44 43.3922Z" fill="url(#paint10_radial_49_6)"/>
<path d="M52.1084 30.5463C50.4865 32.4618 50.5393 35.8947 55.1479 42.2796C58.484 46.8933 61.2531 51.1361 67.9122 58.7843C69.1713 60.233 70.3054 62.1348 69.8241 62.636C70.9384 54.7131 60.1059 46.9207 56.5852 40.9476C53.7963 36.2105 53.2424 33.4161 52.1084 30.5463Z" fill="url(#paint11_linear_49_6)"/>
<path d="M51.3436 59.2378C52.5633 60.5079 62.9079 72.3715 62.6508 73.0031C64.9319 71.3073 63.376 68.6641 59.8487 64.9911C52.6161 57.4596 42.5484 47.3398 38.5002 39.005C38.1179 38.2155 37.4058 37.6319 36.5685 37.522C34.3861 37.2268 36.0081 40.4742 36.7398 41.5795C37.6892 43.0282 50.1304 57.9745 51.3436 59.2378Z" fill="url(#paint12_linear_49_6)"/>
<path d="M34.4719 60.7823C38.3222 65.2655 42.7528 69.8379 46.9922 74.232C50.3085 77.6647 57.8181 84.9215 56.9939 85.7797C61.6486 81.7016 40.0298 66.9613 31.2413 52.674C30.6676 54.9329 32.1379 58.0567 34.4719 60.7823Z" fill="url(#paint13_linear_49_6)"/>
<path d="M56.0446 86.5902C56.4862 86.4117 56.7171 86.1989 56.7895 85.9655C55.9918 86.604 54.9435 86.3774 52.8667 84.4619C50.6052 82.3816 45.2582 76.4499 41.777 73.5457C40.2474 72.2756 38.8036 71.5685 37.4849 71.4448C39.3705 72.6738 38.4937 73.1132 42.687 76.4636C44.9418 78.2624 53.1699 87.7642 56.0446 86.5902Z" fill="url(#paint14_linear_49_6)"/>
<path d="M50.5658 64.8541C53.6183 68.7262 59.5784 75.1181 62.2553 73.3536C61.5169 73.6146 59.8356 73.1888 57.0928 70.0789C54.3963 67.0237 47.1768 58.2426 42.9176 54.2605C39.4694 51.0338 36.6411 49.3517 34.2147 49.9352C41.276 52.3519 47.6713 61.1948 50.5658 64.8541Z" fill="url(#paint15_linear_49_6)"/>
<path d="M53.8689 48.191C58.7411 53.7109 65.9739 64.6616 69.6396 62.7461C69.0396 62.9382 67.7473 62.1076 66.7386 61.0503C65.6112 59.8763 55.6095 47.5321 53.348 44.882C50.4075 41.4491 46.9329 35.2976 42.9374 33.4164C46.9658 36.7257 49.9196 43.7217 53.8689 48.191Z" fill="url(#paint16_linear_49_6)"/>
<path d="M82.5026 60.6794C82.5093 60.6794 82.5093 60.6794 82.5026 60.6794C80.228 58.7432 78.0919 55.7843 76.5623 53.2646C74.0437 49.0972 63.6926 35.6956 61.174 31.8922C60.4026 30.7319 59.5586 29.9286 58.6818 29.4205C59.8554 31.1781 60.5212 33.6841 63.1782 36.7873C67.4374 41.7648 73.0085 50.7312 74.9206 53.8138C76.8259 56.8827 79.9116 63.3775 82.5026 60.6794Z" fill="url(#paint17_linear_49_6)"/>
<path d="M96.4538 104.88C94.8714 100.871 92.5573 98.4266 89.2146 100.72C80.0962 106.974 69.6068 104.86 56.4534 93.7923C44.7243 83.9128 38.6586 76.8551 32.949 74.3011C31.5777 77.5484 37.2214 82.7595 38.5532 84.1463C40.6828 86.3639 49.4252 94.7742 52.1218 96.7377C56.7304 100.088 65.9476 113.4 78.125 113.4C84.9356 113.394 91.4891 109.83 96.4538 104.88Z" fill="url(#paint18_linear_49_6)"/>
<path d="M102.308 61.9565C102.48 53.9856 108.051 50.1822 108.051 46.2001C108.051 45.0261 107.464 44.168 106.634 43.5432C107.649 46.6464 105.229 49.3995 101.616 54.0819C97.6999 59.1554 96.8363 67.0302 99.5263 74.9119C102.223 82.7935 98.8273 93.6618 93.3484 97.1014C87.8696 100.541 80.5908 115.666 59.7499 98.5775C59.7434 98.5706 59.7434 98.5706 59.7368 98.5636C58.4643 97.3348 57.205 96.2432 55.9325 95.4193C47.1308 89.7414 42.1134 84.6335 38.3223 80.3426C37.5774 79.4981 35.5731 76.2645 33.1863 77.3285C34.3797 80.1434 37.5906 83.1438 38.5531 84.1461C40.6827 86.3637 49.4251 94.7739 52.1218 96.7374C52.4712 96.9915 52.8535 97.3073 53.2557 97.6712C53.3613 97.7673 53.4667 97.8634 53.5723 97.9595C53.5986 97.987 53.6316 98.0144 53.6579 98.0351C53.7238 98.0968 53.7964 98.1655 53.8624 98.2274C53.8755 98.2411 53.8953 98.2548 53.9085 98.2754C56.6446 100.864 60.4092 105.148 65.0245 108.491C65.0245 108.491 65.0311 108.491 65.0311 108.498C65.4333 108.793 65.8486 109.082 66.264 109.356C66.2706 109.363 66.2771 109.363 66.2838 109.37C66.6991 109.645 67.1211 109.912 67.5431 110.166C67.5496 110.166 67.5496 110.173 67.5562 110.173C70.7473 112.082 74.2878 113.4 78.1118 113.4C92.2012 113.4 105.249 98.0968 105.249 86.8648C105.249 75.6327 102.104 71.3761 102.308 61.9565Z" fill="url(#paint19_radial_49_6)"/>
<defs>
<linearGradient id="paint0_linear_49_6" x1="98.419" y1="116.299" x2="85.9911" y2="88.3375" gradientUnits="userSpaceOnUse">
<stop offset="0.00132565" stop-color="#FFCB4B"/>
<stop offset="1" stop-color="#FFD748"/>
</linearGradient>
<linearGradient id="paint1_linear_49_6" x1="100.73" y1="96.5988" x2="75.213" y2="67.3686" gradientUnits="userSpaceOnUse">
<stop offset="0.00132565" stop-color="#FFCB4B"/>
<stop offset="1" stop-color="#FFD748"/>
</linearGradient>
<linearGradient id="paint2_linear_49_6" x1="35.641" y1="76.4608" x2="50.3944" y2="86.8936" gradientUnits="userSpaceOnUse">
<stop offset="0.00132565" stop-color="#FFCB4B"/>
<stop offset="1" stop-color="#FFD748"/>
</linearGradient>
<linearGradient id="paint3_linear_49_6" x1="30.4159" y1="47.3366" x2="56.6607" y2="73.7152" gradientUnits="userSpaceOnUse">
<stop offset="0.00132565" stop-color="#FFCB4B"/>
<stop offset="1" stop-color="#FFD748"/>
</linearGradient>
<linearGradient id="paint4_linear_49_6" x1="49.744" y1="63.6318" x2="41.1052" y2="71.4468" gradientUnits="userSpaceOnUse">
<stop stop-color="#FFBC47" stop-opacity="0"/>
<stop offset="1" stop-color="#FFA754"/>
</linearGradient>
<linearGradient id="paint5_linear_49_6" x1="57.6104" y1="34.3908" x2="73.0775" y2="57.7318" gradientUnits="userSpaceOnUse">
<stop offset="0.00132565" stop-color="#FFCB4B"/>
<stop offset="1" stop-color="#FFD748"/>
</linearGradient>
<linearGradient id="paint6_linear_49_6" x1="42.5285" y1="38.3626" x2="63.4065" y2="65.4471" gradientUnits="userSpaceOnUse">
<stop offset="0.00132565" stop-color="#FFCB4B"/>
<stop offset="1" stop-color="#FFD748"/>
</linearGradient>
<linearGradient id="paint7_linear_49_6" x1="66.1108" y1="41.7277" x2="53.134" y2="52.978" gradientUnits="userSpaceOnUse">
<stop stop-color="#FFBC47" stop-opacity="0"/>
<stop offset="1" stop-color="#FFA754"/>
</linearGradient>
<linearGradient id="paint8_linear_49_6" x1="54.5911" y1="50.1159" x2="36.8917" y2="62.5417" gradientUnits="userSpaceOnUse">
<stop stop-color="#FFBC47" stop-opacity="0"/>
<stop offset="1" stop-color="#FFA754"/>
</linearGradient>
<linearGradient id="paint9_linear_49_6" x1="67.4186" y1="68.3882" x2="49.7192" y2="80.814" gradientUnits="userSpaceOnUse">
<stop stop-color="#FFBC47" stop-opacity="0"/>
<stop offset="1" stop-color="#FFA754"/>
</linearGradient>
<radialGradient id="paint10_radial_49_6" cx="0" cy="0" r="1" gradientUnits="userSpaceOnUse" gradientTransform="translate(90.0139 47.1056) scale(20.673 21.5273)">
<stop stop-color="#FFBC47" stop-opacity="0"/>
<stop offset="1" stop-color="#FFA754"/>
</radialGradient>
<linearGradient id="paint11_linear_49_6" x1="68.4027" y1="39.4158" x2="57.3067" y2="49.2918" gradientUnits="userSpaceOnUse">
<stop offset="0.3118" stop-color="#FFBC47" stop-opacity="0"/>
<stop offset="1" stop-color="#FF8900"/>
</linearGradient>
<linearGradient id="paint12_linear_49_6" x1="60.2113" y1="45.0117" x2="45.6134" y2="57.6458" gradientUnits="userSpaceOnUse">
<stop offset="0.3118" stop-color="#FFBC47" stop-opacity="0"/>
<stop offset="1" stop-color="#FF8900"/>
</linearGradient>
<linearGradient id="paint13_linear_49_6" x1="55.4498" y1="59.3128" x2="37.4777" y2="73.8103" gradientUnits="userSpaceOnUse">
<stop offset="0.3118" stop-color="#FFBC47" stop-opacity="0"/>
<stop offset="1" stop-color="#FF8900"/>
</linearGradient>
<linearGradient id="paint14_linear_49_6" x1="36.4706" y1="70.3656" x2="57.3367" y2="86.6546" gradientUnits="userSpaceOnUse">
<stop stop-color="#FFBC47" stop-opacity="0"/>
<stop offset="1" stop-color="#FFBC47"/>
</linearGradient>
<linearGradient id="paint15_linear_49_6" x1="40.3408" y1="49.1498" x2="57.0321" y2="73.5243" gradientUnits="userSpaceOnUse">
<stop stop-color="#FFBC47" stop-opacity="0"/>
<stop offset="1" stop-color="#FFBC47"/>
</linearGradient>
<linearGradient id="paint16_linear_49_6" x1="52.7052" y1="50.935" x2="57.2717" y2="47.5816" gradientUnits="userSpaceOnUse">
<stop stop-color="#FFBC47" stop-opacity="0"/>
<stop offset="1" stop-color="#FFA754"/>
</linearGradient>
<linearGradient id="paint17_linear_49_6" x1="74.5926" y1="64.8889" x2="68.2024" y2="35.6506" gradientUnits="userSpaceOnUse">
<stop stop-color="#FFBC47" stop-opacity="0"/>
<stop offset="1" stop-color="#FFBC47"/>
</linearGradient>
<linearGradient id="paint18_linear_49_6" x1="61.0924" y1="93.0504" x2="51.8939" y2="101.169" gradientUnits="userSpaceOnUse">
<stop offset="0.3118" stop-color="#FFBC47" stop-opacity="0"/>
<stop offset="1" stop-color="#FF8900"/>
</linearGradient>
<radialGradient id="paint19_radial_49_6" cx="0" cy="0" r="1" gradientUnits="userSpaceOnUse" gradientTransform="translate(66.9679 64.9906) rotate(49.2903) scale(61.3078 55.3575)">
<stop offset="0.6134" stop-color="#FFBC47" stop-opacity="0"/>
<stop offset="1" stop-color="#FF8900"/>
</radialGradient>
</defs>
</svg>
